<?xml version="1.0" encoding="UTF-8" standalone="no"?>
<!-- Created with Inkscape (http://www.inkscape.org/) -->

<svg
   xmlns:dc="http://purl.org/dc/elements/1.1/"
   xmlns:cc="http://creativecommons.org/ns#"
   xmlns:rdf="http://www.w3.org/1999/02/22-rdf-syntax-ns#"
   xmlns:svg="http://www.w3.org/2000/svg"
   xmlns="http://www.w3.org/2000/svg"
   xmlns:xlink="http://www.w3.org/1999/xlink"
   xmlns:sodipodi="http://sodipodi.sourceforge.net/DTD/sodipodi-0.dtd"
   xmlns:inkscape="http://www.inkscape.org/namespaces/inkscape"
   width="210mm"
   height="297mm"
   viewBox="0 0 210 297"
   version="1.1"
   id="svg920"
   inkscape:version="0.92.4 (5da689c313, 2019-01-14)"
   sodipodi:docname="desenhando.svg">
  <defs
     id="defs914">
    <linearGradient
       inkscape:collect="always"
       id="linearGradient3105">
      <stop
         style="stop-color:#0072d3;stop-opacity:1;"
         offset="0"
         id="stop3101" />
      <stop
         style="stop-color:#0072d3;stop-opacity:0;"
         offset="1"
         id="stop3103" />
    </linearGradient>
    <radialGradient
       inkscape:collect="always"
       xlink:href="#linearGradient5478"
       id="radialGradient5316-3"
       cx="46.294968"
       cy="-380.28299"
       fx="46.294968"
       fy="-380.28299"
       r="6.6758194"
       gradientTransform="matrix(0.01619997,2.5672957,-1.1981284,0.00756034,-232.62477,-602.1291)"
       gradientUnits="userSpaceOnUse" />
    <linearGradient
       id="linearGradient5478"
       inkscape:collect="always">
      <stop
         id="stop5474"
         offset="0"
         style="stop-color:#00a4ff;stop-opacity:1" />
      <stop
         id="stop5476"
         offset="1"
         style="stop-color:#0044aa;stop-opacity:1" />
    </linearGradient>
    <clipPath
       clipPathUnits="userSpaceOnUse"
       id="clipPath5278">
      <rect
         style="opacity:0.52300002;vector-effect:none;fill:#ffffff;fill-opacity:1;stroke:#ffffff;stroke-width:0.51430529;stroke-linecap:butt;stroke-linejoin:miter;stroke-miterlimit:4;stroke-dasharray:none;stroke-dashoffset:0;stroke-opacity:1;paint-order:stroke markers fill"
         id="rect5280"
         width="200.38705"
         height="241.97681"
         x="252.96773"
         y="-202.22751" />
    </clipPath>
    <clipPath
       clipPathUnits="userSpaceOnUse"
       id="clipPath4695">
      <path
         id="path4697"
         d="m 350.79099,-193.90754 -3.74137,0.0672 -2.80654,0.2005 -4.1424,0.20051 -3.07372,0.86816 -3.54136,1.4702 -6.61512,3.54138 -1.46968,0.26717 -4.27622,1.40301 -8.21862,3.74189 -2.13836,0.93535 -1.60354,0.93586 -1.87068,2.13785 -0.13383,4.67724 -0.60153,17.37258 -1.46968,6.74842 -0.73535,4.34341 -0.2005,4.07572 -0.33383,6.14743 -0.2005,3.74137 c 0,0 -0.26718,4.00933 -0.26718,4.3434 0,0.33409 0.0667,3.60805 0.0667,3.60805 l 1.26968,3.20704 -0.53485,-0.0667 -1.00201,-0.93534 -1.403,-0.26717 -1.33636,0.46767 -0.93586,1.20251 0.401,2.60604 0.80203,2.73937 0.33383,3.14038 -0.53433,3.20755 -0.0667,3.2737 -0.0672,4.877741 0.0672,2.138373 0.13332,4.075719 0.86868,1.937866 -0.33382,2.472201 1.46968,1.60352 1.53686,1.603521 2.07118,-0.06667 0.93586,-0.86868 1.73686,-0.334346 0.2005,1.871203 0.93533,2.338358 1.20303,3.875733 2.53886,5.478735 2.80654,4.075721 -0.0666,4.877739 -2.07172,12.027173 -4.07572,3.541384 -6.54791,3.741891 -3.9424,0.33383 -2.20503,0.802019 -2.13837,1.336352 -4.27624,1.670182 -1.93734,1.269691 h -0.80203 l -3.34087,0.467672 -3.94239,0.86868 -2.00454,0.86868 -1.46968,3.741891 -3.07372,0.40101 -2.13836,-0.93586 -0.53433,-0.668176 -2.13839,-0.133326 -2.80601,0.133326 -2.93988,0.668176 -2.80654,1.604036 -2.80603,1.870686 -1.06919,1.336353 -3.20756,2.004528 -1.87068,1.737363 -1.33636,0.267167 h -1.20251 l -1.60403,1.470194 h -1.73685 l -2.13837,-0.401009 -3.74189,-1.737361 -3.20704,-0.668178 -3.60805,0.534336 -1.20302,0.668176 -0.12506,71.224593 223.56258,0.06976 -0.66818,-4.543391 -0.53485,-5.078243 -0.60098,-5.679757 -0.60153,-4.944402 -0.6015,-3.474207 -0.53436,-4.076237 -0.73482,-3.875215 -1.26969,-4.209562 -0.73485,-2.6060426 -0.53485,-3.1403767 -2.00451,-4.61005456 -0.80151,-2.53937994 -0.13385,-1.6035195 -0.6015,-1.3363527 -0.93536,-2.7393675 -0.46768,-1.7373615 -1.13583,-2.271696 -1.80403,-2.806547 -1.33636,-1.469678 -1.33633,-1.737361 -1.33636,-0.935344 -1.87068,-0.735356 -1.60404,-1.068668 -1.46968,-1.203027 -1.26971,-0.467672 -1.53683,-0.33383 -0.93535,-0.401009 -4.61058,-1.737362 -4.20904,-2.271695 -4.54391,-2.138373 -4.34289,-2.271694 -5.47926,-2.338358 -5.67923,-2.071709 -6.08076,-3.140376 -3.87522,-2.338359 -2.47221,-1.737362 -1.93786,-0.534334 -1.06918,-0.468189 0.33435,-2.405022 0.6015,-4.811075 0.93536,-4.410067 0.6015,-6.280753 0.73486,-3.207039 2.67269,-4.410067 2.67271,-6.146911 1.46968,-3.942395 0.86868,-4.410067 0.46765,-2.739369 0.73536,0.401011 1.60353,1.002003 1.67018,1.135848 c 0,0 1.20293,0.200507 1.47019,0.200507 0.26728,0 1.53686,-0.534334 1.53686,-0.534334 l 0.73485,-2.071709 0.26715,-2.538865 -0.66818,-1.20251 -0.66818,-1.470194 v -1.069184 l -0.0666,-3.340883 0.0666,-2.271697 -0.0666,-2.472203 -0.401,-2.6727 -0.2005,-4.47673 -0.20053,-2.20503 0.20053,-3.40755 0.26768,-2.6727 -0.33435,-1.06919 -1.13586,-0.66817 -0.86868,0.53433 -0.0667,-2.80603 0.401,-6.6151 -0.26768,-10.22315 -0.26717,-4.27622 -0.8015,-3.60805 -1.26969,-5.14491 -1.2025,-3.00705 -1.40354,-3.47421 -0.93535,-2.60604 -2.20504,-15.36805 -2.93986,-2.40502 -2.47219,-1.80455 -8.75297,-3.40754 -0.73536,-1.002 -3.34087,-1.87121 -3.07319,-0.8015 -3.07371,-2.07171 -1.06921,-1.33635 -3.94237,-0.73484 -2.67272,-0.73484 -5.1449,-1.33635 z m -32.80731,14.36605 0.73536,0.2005 -2.33886,2.67271 -1.13586,1.73736 -1.002,1.60352 -1.53686,2.73936 -1.33636,1.93787 -1.53686,3.14038 v -3.87574 l 0.8015,-8.28528 h 2.80655 l 1.53685,-0.8015 1.93789,-0.86868 z"
         style="fill:none;stroke:#000000;stroke-width:0.26458332px;stroke-linecap:butt;stroke-linejoin:miter;stroke-opacity:1"
         inkscape:connector-curvature="0" />
    </clipPath>
    <linearGradient
       inkscape:collect="always"
       xlink:href="#linearGradient3105"
       id="linearGradient3107"
       x1="330.27066"
       y1="595.48871"
       x2="227.85715"
       y2="705.37683"
       gradientUnits="userSpaceOnUse" />
    <clipPath
       clipPathUnits="userSpaceOnUse"
       id="clipPath3158">
      <rect
         ry="6.016427"
         y="122.35907"
         x="-89.376953"
         height="74.077255"
         width="47.37936"
         id="rect3160"
         style="opacity:1;vector-effect:none;fill:#ececec;fill-opacity:1;stroke:none;stroke-width:0.17067553;stroke-linecap:butt;stroke-linejoin:miter;stroke-miterlimit:4;stroke-dasharray:none;stroke-dashoffset:0;stroke-opacity:1;paint-order:stroke markers fill" />
    </clipPath>
  </defs>
  <sodipodi:namedview
     id="base"
     pagecolor="#ffffff"
     bordercolor="#666666"
     borderopacity="1.0"
     inkscape:pageopacity="0.0"
     inkscape:pageshadow="2"
     inkscape:zoom="1.4"
     inkscape:cx="197.75891"
     inkscape:cy="557.15662"
     inkscape:document-units="mm"
     inkscape:current-layer="layer1"
     showgrid="false"
     inkscape:window-width="1366"
     inkscape:window-height="704"
     inkscape:window-x="0"
     inkscape:window-y="27"
     inkscape:window-maximized="1" />
  <metadata
     id="metadata917">
    <rdf:RDF>
      <cc:Work
         rdf:about="">
        <dc:format>image/svg+xml</dc:format>
        <dc:type
           rdf:resource="http://purl.org/dc/dcmitype/StillImage" />
        <dc:title></dc:title>
      </cc:Work>
    </rdf:RDF>
  </metadata>
  <g
     inkscape:label="Camada 1"
     inkscape:groupmode="layer"
     id="layer1">
    <rect
       style="opacity:1;vector-effect:none;fill:#ececec;fill-opacity:1;stroke:none;stroke-width:0.24262306;stroke-linecap:butt;stroke-linejoin:miter;stroke-miterlimit:4;stroke-dasharray:none;stroke-dashoffset:0;stroke-opacity:1;paint-order:stroke markers fill"
       id="rect1465"
       width="67.351921"
       height="105.30419"
       x="29.934185"
       y="81.046227"
       ry="8.5526247" />
    <g
       id="g3154"
       transform="matrix(1.4215456,0,0,1.4215456,156.9876,-92.892775)"
       style="opacity:0.106"
       clip-path="url(#clipPath3158)">
      <path
         sodipodi:nodetypes="cccccccccccccccccccccsscccccscccccccccccsccccccscccccccsccccscsccccccccccccccccsccccccccccccccccsc"
         inkscape:connector-curvature="0"
         id="path3113"
         d="m -90.03623,154.82144 c -0.10446,0.0534 -0.208105,0.11325 -0.306462,0.18384 -0.726163,0.49702 -1.125121,1.12813 -1.266908,2.00489 -0.09799,0.60595 7.22e-4,1.15684 0.318809,1.78378 0.311851,0.61467 0.669304,0.98511 1.205134,1.24709 l 0.362667,0.1771 -0.01207,0.95941 c -0.0064,0.52769 -0.01582,1.5739 -0.02146,2.32504 -0.02205,2.93003 -0.03734,3.50283 -0.09388,3.50122 -0.03278,-0.002 -0.262724,0.0879 -0.51182,0.19678 -1.780502,0.77789 -2.756733,2.75688 -2.296705,4.65526 0.105011,0.43335 0.568765,1.26848 0.923374,1.66309 0.585589,0.65161 1.55225,1.14622 2.462123,1.25976 0.91034,0.11359 1.625828,-0.0394 2.491853,-0.52785 l 0.522888,-0.29499 0.921072,0.6727 c 0.822586,0.60001 1.305014,0.95676 2.89727,2.14525 l 0.448648,0.33431 -0.06686,0.22176 c -0.116547,0.38569 -0.13139,1.1309 -0.03165,1.6175 0.12082,0.58907 0.531191,1.32771 0.973463,1.75185 1.099022,1.05417 2.755122,1.24517 4.09324,0.4726 1.261308,-0.72821 1.907328,-2.18458 1.62088,-3.65513 -0.117232,-0.60186 -0.673594,-1.50784 -1.171958,-1.90834 -0.73793,-0.59306 -1.474036,-0.8291 -2.403229,-0.77058 -0.605241,0.0382 -1.454383,0.31115 -1.69682,0.54566 -0.09288,0.0902 -0.182471,0.0462 -0.769071,-0.38472 -0.365114,-0.26814 -0.826007,-0.60449 -1.023325,-0.74687 -1.230084,-0.88787 -2.557342,-1.87773 -2.587212,-1.92947 -0.01923,-0.0333 0.0138,-0.22678 0.07291,-0.42978 0.141507,-0.48581 0.179082,-1.21922 0.08886,-1.73258 l -0.07241,-0.41357 3.597472,-2.05629 3.5832,-2.04805 c -0.191928,-0.2882 -0.375345,-0.58197 -0.550212,-0.88086 -0.156515,-0.28704 -0.306476,-0.57746 -0.447701,-0.87229 l -3.569782,2.06102 -3.575131,2.0641 -0.550924,-0.38585 c -0.53608,-0.37472 -0.766853,-0.49486 -1.086129,-0.56316 -0.08518,-0.018 -0.167765,-0.0538 -0.18281,-0.0799 -0.0261,-0.0452 -0.0251,-0.49008 0.0061,-2.81915 0.0075,-0.55987 0.01133,-1.17442 0.0085,-1.36512 -0.0029,-0.1907 0.0051,-0.83493 0.01738,-1.43214 l 0.022,-1.08636 0.513509,-0.32155 c 0.782508,-0.49205 1.183434,-1.06077 1.370635,-1.94468 0.122295,-0.57743 0.101665,-0.92872 -0.08819,-1.50788 -0.563723,-1.71962 -2.574672,-2.49514 -4.138352,-1.68556 z m 0.803403,1.87141 c 0.208677,-0.14119 0.471342,-0.2084 0.73025,-0.16239 0.679902,0.12084 0.979123,0.96012 0.535848,1.50272 -0.268655,0.32882 -0.727147,0.45088 -1.112946,0.29652 -0.331668,-0.13273 -0.624919,-0.66999 -0.561415,-1.0278 0.04478,-0.25203 0.199678,-0.4675 0.408176,-0.609 z m -0.519576,12.50307 c 0.308274,-0.18489 0.643372,-0.32267 0.872842,-0.33758 0.791649,-0.0511 1.45436,0.35257 1.832059,1.1158 0.360335,0.72814 0.270652,1.53506 -0.234179,2.10901 -0.08757,0.0998 -0.346396,0.28926 -0.57398,0.42066 -0.991166,0.57213 -2.048953,0.30028 -2.609965,-0.67142 -0.421357,-0.72981 -0.42227,-1.37223 -0.0041,-2.02737 0.125352,-0.19616 0.408344,-0.42535 0.717315,-0.60903 z m 10.314003,-1.27835 c -0.4327,0.24981 -0.525366,0.33254 -0.736246,0.65447 -0.79985,1.22077 -0.289137,2.82574 1.037058,3.25845 0.465654,0.15195 0.838014,0.17865 1.258859,0.0901 0.382686,-0.0806 0.920205,-0.44178 1.173016,-0.78769 0.283342,-0.38815 0.476903,-1.08446 0.439355,-1.58062 -0.06782,-0.89587 -0.732489,-1.65568 -1.623209,-1.85588 -0.669948,-0.15059 -0.981071,-0.10642 -1.548833,0.2212 z m -0.08481,9.14745 c 0.383933,-0.2502 0.892126,-0.31673 1.368115,-0.0955 0.698189,0.32452 0.993297,1.20534 0.640768,1.913 -0.141207,0.28332 -0.221394,0.36525 -0.522287,0.53702 -0.381985,0.21364 -0.648661,0.25716 -1.065649,0.1622 -0.595146,-0.13544 -1.007668,-0.65766 -1.039529,-1.31654 -0.02494,-0.5153 0.234679,-0.94993 0.618582,-1.20017 z m 10.862569,-4.38331 c 0.01016,0.006 0.0689,0.0265 0.0706,0.0294 0.01295,0.0224 -0.51714,2.05761 -1.178045,4.5231 l -1.201192,4.48296 -0.535165,0.14608 c -1.787234,0.48948 -2.649262,2.42732 -1.864613,4.19064 0.300844,0.67611 1.061683,1.28139 1.892795,1.50524 1.682955,0.45323 3.23484,-0.52045 3.639002,-2.28298 0.240439,-1.04835 -0.109257,-2.09526 -0.923323,-2.76288 l -0.267306,-0.21789 1.194381,-4.52772 1.193969,-4.5264 c -0.68407,-0.14655 -1.358937,-0.33343 -2.021031,-0.55961 z m -2.497837,11.20407 c 0.150708,-0.0801 0.326998,-0.11954 0.517298,-0.10493 0.347299,0.0268 0.520818,0.14173 0.707118,0.46688 0.180158,0.31415 0.191409,0.55471 0.04074,0.86348 -0.141752,0.29031 -0.544698,0.54918 -0.869335,0.55782 -0.239288,0.006 -0.666279,-0.24577 -0.794865,-0.46849 -0.282678,-0.48961 -0.05422,-1.07657 0.399013,-1.31482 z"
         style="fill:#4d4d4d;fill-opacity:1;stroke:#4d4d4d;stroke-width:0.06729196" />
      <path
         sodipodi:nodetypes="ccccc"
         inkscape:connector-curvature="0"
         style="opacity:1;vector-effect:none;fill:#4d4d4d;fill-opacity:1;stroke:#4d4d4d;stroke-width:0.39650384;stroke-linecap:butt;stroke-linejoin:miter;stroke-miterlimit:4;stroke-dasharray:none;stroke-dashoffset:0;stroke-opacity:1;paint-order:stroke markers fill"
         d="m -78.575079,158.99368 c 0.335223,1.70755 0.947818,3.3487 1.813456,4.85827 2.834821,4.89411 8.049626,7.92075 13.705392,7.95186 l -9.426659,-16.32745 z"
         id="path3115" />
      <path
         sodipodi:nodetypes="cccc"
         inkscape:connector-curvature="0"
         style="opacity:1;vector-effect:none;fill:#4d4d4d;fill-opacity:1;stroke:#4d4d4d;stroke-width:0.39650384;stroke-linecap:butt;stroke-linejoin:miter;stroke-miterlimit:4;stroke-dasharray:none;stroke-dashoffset:0;stroke-opacity:1;paint-order:stroke markers fill"
         d="m -56.174232,141.48102 9.091723,15.74733 c 0.276287,-3.24374 -0.447316,-6.49426 -2.073566,-9.31447 -1.630658,-2.80844 -4.078029,-5.05364 -7.018157,-6.43286 z"
         id="path3117" />
      <path
         sodipodi:nodetypes="ccccccccccc"
         inkscape:connector-curvature="0"
         style="opacity:1;vector-effect:none;fill:#4d4d4d;fill-opacity:1;stroke:#4d4d4d;stroke-width:0.39650384;stroke-linecap:butt;stroke-linejoin:miter;stroke-miterlimit:4;stroke-dasharray:none;stroke-dashoffset:0;stroke-opacity:1;paint-order:stroke markers fill"
         d="m -70.927723,142.07949 c -4.218775,2.44261 -7.0869,6.68246 -7.785838,11.50698 l 15.255176,-8.80758 2.376013,4.11537 -6.881054,3.97278 10.392747,18.00077 c 0.89395,-0.3164 1.757892,-0.71196 2.581515,-1.18193 2.38299,-1.38503 4.367114,-3.36299 5.757386,-5.74292 l -11.854939,-20.53336 4.033216,-2.32857 c -4.533627,-1.80935 -9.64638,-1.44141 -13.874222,0.99846 z"
         id="path3119" />
      <path
         sodipodi:nodetypes="sccccsccccccccsscccscccccccccccccscccccccccccccccccccccccccccccccccccccccccccccccccccccscccccccccccccccccccscccccccccccccccccccccccccccccccc"
         inkscape:connector-curvature="0"
         style="fill:#4d4d4d;fill-opacity:1;stroke:#4d4d4d;stroke-width:0.06729196"
         d="m -77.428823,130.99357 c -0.75103,0.43374 -1.347965,1.13993 -1.577038,1.99495 -0.159838,0.59641 -0.10466,1.491 0.132215,2.13402 0.396009,1.07527 1.458161,1.96659 2.529718,2.12444 0.362022,0.0533 0.94565,0.0453 1.168093,-0.0157 0.14298,-0.0393 0.146322,-0.0327 1.304483,1.97329 l 1.084842,1.879 c 0.307951,-0.20633 0.621969,-0.40351 0.942202,-0.59023 0.266756,-0.14481 0.536892,-0.28329 0.810647,-0.41442 l -1.076685,-1.89676 -1.148579,-2.02526 0.142298,-0.15716 c 0.07819,-0.0866 0.253037,-0.37992 0.389471,-0.65173 0.933723,-1.86157 -0.128658,-4.13889 -2.200338,-4.71521 -0.844572,-0.23496 -1.749477,-0.0733 -2.500517,0.36045 z m -21.468518,12.89546 c -0.281633,0.1626 -0.53229,0.3683 -0.744509,0.60932 -0.38444,0.43663 -0.5333,0.70792 -0.71342,1.30364 -0.17461,0.57753 -0.20867,0.9864 -0.12911,1.55371 0.0522,0.37344 0.115,0.52478 0.4645,1.13013 0.339848,0.58864 0.456427,0.74353 0.738866,0.97289 0.735256,0.59715 1.751972,0.87056 2.705264,0.72939 0.398919,-0.0591 0.53884,-0.11667 1.180276,-0.48884 0.639437,-0.36918 0.754837,-0.46135 0.957518,-0.74081 l 0.231422,-0.31792 6.93192,1.8574 c 3.762087,1.00795 6.812787,1.84809 6.913499,1.90373 0.135417,-0.6698 0.309361,-1.33121 0.520966,-1.98091 l -6.915041,-1.85284 -6.957255,-1.86422 -0.04479,-0.43785 c -0.06435,-0.62788 -0.493018,-1.46129 -0.989265,-1.92348 -0.684397,-0.63747 -1.57039,-0.95554 -2.539487,-0.91185 -0.59152,0.0267 -1.143194,0.18583 -1.611621,0.45841 z m 7.923866,-4.55114 c -0.717913,0.38043 -1.185329,1.1998 -1.136946,2.13319 0.02922,0.56308 0.405336,1.24821 0.847485,1.54401 0.521246,0.34874 1.399072,0.50071 1.955154,0.33841 0.905475,-0.26403 1.569899,-1.30135 1.48305,-2.31635 -0.04956,-0.57839 -0.434579,-1.26674 -0.857817,-1.53321 -0.430419,-0.27098 -0.998213,-0.41759 -1.499549,-0.38748 -0.285115,0.0171 -0.552003,0.0946 -0.791308,0.22139 z m 14.59281,-6.63802 c 0.159164,-0.085 0.332664,-0.14144 0.515996,-0.15042 1.03767,-0.0517 1.713205,0.91943 1.329457,1.91133 -0.10181,0.26264 -0.173171,0.34082 -0.498475,0.54941 -0.398657,0.25387 -0.627256,0.29933 -1.048602,0.20823 -0.505152,-0.10917 -0.951946,-0.603 -1.01937,-1.1272 -0.0726,-0.56633 0.247378,-1.12966 0.721048,-1.39133 z m -21.520526,12.98253 c 0.451595,-0.3003 0.803009,-0.35248 1.242078,-0.18205 0.396147,0.15379 0.56309,0.29433 0.756259,0.63233 0.311567,0.54762 0.215986,1.26163 -0.229134,1.69347 -0.269638,0.26129 -0.365747,0.31401 -0.683259,0.37147 -0.613333,0.11187 -1.253251,-0.16696 -1.542952,-0.67272 -0.171729,-0.29956 -0.184126,-0.89296 -0.02788,-1.29426 0.09843,-0.25287 0.180706,-0.34498 0.484697,-0.54856 z m 16.637204,-5.56631 c -0.447503,0.22362 -0.836355,0.55695 -1.115544,0.97578 -0.383412,0.57494 -0.589788,1.41277 -0.499082,2.02292 0.07627,0.5135 0.46048,1.31037 0.79242,1.64232 0.883742,0.88383 2.129828,1.14766 3.287767,0.69628 l 0.486435,-0.18927 0.388724,0.31063 c 0.178402,0.14241 0.274929,0.23468 0.315396,0.28285 0.391317,-0.56966 0.815568,-1.11595 1.270594,-1.63604 -0.08518,-0.0419 -0.217098,-0.12256 -0.378642,-0.24395 l -0.39807,-0.29812 0.07038,-0.40328 c 0.183241,-1.0552 -0.210003,-2.13334 -1.021488,-2.79899 -0.570447,-0.46793 -1.029109,-0.64722 -1.730979,-0.67714 -0.513889,-0.022 -1.020545,0.0922 -1.467918,0.31603 z m 0.90646,1.79879 c 0.162058,-0.0844 0.338256,-0.12949 0.500389,-0.11772 0.3088,0.0226 0.712493,0.31279 0.773822,0.55563 0.0981,0.38871 0.0949,0.56335 -0.01592,0.76535 -0.169884,0.30977 -0.389815,0.47809 -0.697729,0.53375 -0.362248,0.0653 -0.547223,0.0166 -0.786719,-0.20932 -0.338291,-0.31892 -0.419988,-0.82867 -0.187573,-1.16515 0.104959,-0.15218 0.252002,-0.27757 0.413779,-0.36246 z m 18.684219,31.66594 c 0.110229,0.01 0.185926,0.0247 0.188634,0.0446 0.260045,2.04653 0.36254,2.92611 0.350952,3.003 -0.0078,0.0526 -0.102066,0.16914 -0.210628,0.25713 -0.497579,0.40877 -0.768663,1.27065 -0.624773,1.98855 0.09393,0.46835 0.501249,1.08379 0.889964,1.34578 0.389588,0.26271 0.98259,0.42428 1.443648,0.39364 0.30159,-0.0202 0.461548,-0.0762 0.838629,-0.2939 0.400205,-0.23106 0.499686,-0.32071 0.704646,-0.63508 0.290842,-0.44571 0.4281,-1.013 0.376617,-1.55749 -0.03357,-0.35466 -0.07489,-0.46449 -0.324724,-0.8446 -0.23649,-0.3598 -0.35451,-0.47654 -0.667111,-0.66121 -0.26388,-0.15577 -0.389616,-0.26957 -0.413207,-0.37376 -0.05081,-0.22471 -0.375762,-2.8632 -0.364294,-2.95609 -0.722683,0.14182 -1.453518,0.23856 -2.188283,0.28959 z m 6.608986,-1.80147 2.189222,3.79184 2.224232,3.85248 -0.270434,0.35126 c -0.165948,0.21499 -0.336028,0.55674 -0.440035,0.8854 -0.616956,1.94996 0.449152,3.88542 2.424702,4.40376 0.44401,0.11649 1.438976,0.0802 1.891033,-0.0692 l 0.0047,0.004 c 0.378528,-0.1249 1.134757,-0.61926 1.417972,-0.92566 1.067775,-1.15616 1.198316,-2.91518 0.315346,-4.24618 l -0.30531,-0.46106 0.233515,-0.42138 c 0.667187,-1.20323 2.367246,-4.19663 2.391664,-4.21073 0.01553,-0.009 0.235752,0.002 0.489541,0.0241 1.607943,0.14099 3.102342,-0.94219 3.52351,-2.55511 0.273253,-1.04647 0.09647,-1.98421 -0.535803,-2.83923 -0.562146,-0.76006 -1.139131,-1.1358 -2.05529,-1.3377 -0.929723,-0.20479 -1.798002,-0.0433 -2.566913,0.47612 -1.118977,0.75602 -1.732373,2.16129 -1.515565,3.47305 0.05544,0.33473 0.14034,0.5344 0.459763,1.08885 l 0.391419,0.68007 -0.109436,0.21412 c -0.05995,0.11814 -0.256149,0.47591 -0.435828,0.79382 -0.179694,0.31796 -0.645626,1.14524 -1.035577,1.83926 -0.389915,0.694 -0.782163,1.3832 -0.871765,1.53185 l -0.163669,0.27051 -0.393359,-0.0511 c -0.216291,-0.0279 -0.550015,-0.0222 -0.741511,0.0132 l -0.348214,0.0641 -2.224721,-3.85333 -2.179438,-3.77489 c -0.252514,0.16879 -0.510606,0.32885 -0.77199,0.48344 -0.325154,0.17852 -0.655229,0.34792 -0.990524,0.50653 z m 11.968611,-1.55112 c 0.379106,-0.27617 0.893299,-0.36412 1.391899,-0.15319 0.735212,0.31113 1.047706,1.20066 0.680087,1.93786 -0.327596,0.65691 -1.197447,0.94392 -1.863823,0.61472 -0.398237,-0.19678 -0.753204,-0.70057 -0.786608,-1.11536 -0.04379,-0.54272 0.199502,-1.00766 0.578479,-1.28405 z m -5.839279,10.35096 c 0.169942,-0.10501 0.378315,-0.17631 0.629037,-0.21821 1.217525,-0.20203 2.034957,1.25091 1.268869,2.25553 -0.384945,0.50478 -1.093856,0.66559 -1.675467,0.37876 -0.640932,-0.3161 -0.928894,-0.91011 -0.769982,-1.5911 0.08863,-0.37993 0.26448,-0.64947 0.547464,-0.82495 z"
         id="path3121" />
      <path
         sodipodi:nodetypes="ccccccsccccccccccccccccccccsccccccccccccccccsccccccsccscccccscsccccsccccccccccccscccccsccccccccsccccc"
         inkscape:connector-curvature="0"
         id="path3123"
         d="m -68.057341,128.20834 c -1.333407,0.76984 -1.86402,2.1437 -1.355478,3.51141 0.476266,1.28095 1.613993,2.03105 2.952189,1.94589 0.568102,-0.0361 0.682217,-0.067 1.186898,-0.32498 0.414891,-0.21215 0.628117,-0.36264 0.835966,-0.57652 0.362544,-0.37958 0.699161,-1.06973 0.744734,-1.52742 0.01992,-0.20063 0.05377,-0.37471 0.07503,-0.38698 0.02123,-0.0123 0.941455,-0.3006 2.044967,-0.6408 1.103513,-0.3402 2.154194,-0.66447 2.335402,-0.72056 0.181439,-0.056 0.381195,-0.11585 0.444711,-0.13182 0.07823,-0.0203 0.175611,0.0507 0.308612,0.22368 0.240016,0.3125 0.801219,0.84623 1.026554,0.97692 0.166299,0.0963 0.15703,0.13529 -0.904912,4.10853 l -1.02426,3.83386 c 0.651496,0.13588 1.294852,0.30824 1.92708,0.51636 l 1.034104,-3.83124 1.080337,-4.0065 0.415384,-0.0281 c 1.60651,-0.10986 3.005438,-1.29953 3.440864,-2.92478 0.760882,-2.83944 -1.732514,-5.50697 -4.59221,-4.91212 -0.577745,0.12027 -1.454025,0.55153 -1.88699,0.92885 -0.738351,0.6435 -1.22641,1.65973 -1.303337,2.71204 -0.01897,0.25727 -0.07273,0.47668 -0.119297,0.48742 -0.04667,0.0108 -0.291868,0.0843 -0.545136,0.16379 -1.243249,0.38966 -3.472583,1.08331 -3.864438,1.20258 l -0.440823,0.1344 -0.244782,-0.25938 c -0.935615,-0.99456 -2.345342,-1.18211 -3.5711,-0.47442 z m 0.897221,1.77442 c 0.218145,-0.17473 0.476067,-0.2109 0.813443,-0.12124 0.304338,0.0808 0.363296,0.12527 0.507464,0.37645 0.202147,0.35224 0.217143,0.58453 0.062,0.90233 -0.249287,0.51067 -0.917999,0.69867 -1.37193,0.38549 -0.451696,-0.31177 -0.544269,-0.87375 -0.217277,-1.32165 0.06542,-0.0895 0.133581,-0.16318 0.20635,-0.2213 z m 10.924904,-4.44424 c 0.454926,-0.26265 0.576333,-0.30352 0.914266,-0.31731 0.447739,-0.0185 0.877047,0.13287 1.254177,0.44235 0.353075,0.28993 0.724557,1.02023 0.746308,1.4656 0.01971,0.40716 -0.174371,0.94834 -0.449375,1.2523 -0.310689,0.34366 -0.550382,0.51426 -0.901182,0.64271 -0.984973,0.36044 -1.937605,-0.037 -2.407105,-1.00382 -0.316022,-0.65098 -0.273195,-1.25423 0.13374,-1.89165 0.15319,-0.23984 0.271377,-0.33822 0.709138,-0.59027 z m 8.281417,2.36598 c -0.538277,0.31078 -0.606013,0.36829 -0.87955,0.76466 -0.707353,1.02028 -0.664341,2.28882 0.110086,3.23247 0.677581,0.82569 1.653744,1.15435 2.758231,0.92826 0.177396,-0.0371 0.456492,-0.17382 0.776518,-0.37469 0.424325,-0.27007 0.541003,-0.37931 0.7789,-0.73511 0.340628,-0.50896 0.476592,-1.00441 0.457644,-1.66009 -0.014,-0.48066 -0.02489,-0.51473 -0.383764,-1.13633 -0.343694,-0.59529 -0.397908,-0.6613 -0.768267,-0.91672 -0.510319,-0.35261 -1.166689,-0.5285 -1.785018,-0.47829 -0.438462,0.0366 -0.534687,0.0697 -1.06482,0.37577 z m 0.96873,1.71774 c 0.04435,-0.0256 0.09424,-0.0452 0.14786,-0.0591 0.53683,-0.1445 1.008056,0.32739 0.839305,0.84002 v 0 c -0.117928,0.36237 -0.373229,0.50825 -0.765154,0.44176 -0.245027,-0.0426 -0.320305,-0.0914 -0.428227,-0.27834 -0.208651,-0.36139 -0.10609,-0.76784 0.208352,-0.94068 z m 1.376325,29.9704 c -0.139771,0.65126 -0.316034,1.29411 -0.527998,1.92549 l 0.348993,0.0958 0.475211,0.13108 0.07952,0.40954 c 0.129846,0.66627 0.63767,1.42768 1.187222,1.78054 0.339576,0.21793 1.007862,0.44478 1.433056,0.48652 0.67022,0.0657 1.269262,-0.0928 1.915917,-0.50803 0.661456,-0.42446 0.956711,-0.83263 1.182213,-1.63262 0.455608,-1.61875 -0.448927,-3.1768 -2.099493,-3.6165 -1.145341,-0.30506 -2.132902,-0.0175 -2.932201,0.85461 l -0.263243,0.28751 -0.468405,-0.12551 z m 2.672823,1.15718 c 0.268658,-0.22229 0.759002,-0.26702 1.049309,-0.0958 0.427314,0.25213 0.601999,0.84024 0.373578,1.25872 -0.260979,0.47814 -0.922562,0.65804 -1.346876,0.36504 -0.553666,-0.38214 -0.589251,-1.10351 -0.07601,-1.52799 z m 8.086695,-4.55128 c -0.944764,0.54546 -1.440867,1.46547 -1.368335,2.54387 0.02648,0.40813 0.05854,0.49474 0.399633,1.08553 0.350678,0.6074 0.392616,0.65612 0.784978,0.91893 0.277618,0.18593 0.583145,0.31492 0.924424,0.39017 0.532017,0.11725 0.752082,0.1112 1.339278,-0.0384 0.828833,-0.21123 1.515939,-0.89893 1.786042,-1.78742 0.450788,-1.48251 -0.263561,-2.87124 -1.721363,-3.34614 -0.742961,-0.24198 -1.45258,-0.16437 -2.144605,0.23344 z m 0.965861,1.75741 c 0.286778,-0.16552 0.557544,-0.14357 0.791418,0.0651 0.236295,0.21081 0.291222,0.50122 0.151744,0.80651 -0.32662,0.71511 -1.380919,0.30727 -1.218541,-0.47126 0.04474,-0.21543 0.105071,-0.30203 0.275379,-0.40036 z"
         style="fill:#4d4d4d;fill-opacity:1;stroke:#4d4d4d;stroke-width:0.06729196" />
    </g>
    <path
       style="fill:#008ae8;stroke:none;stroke-width:0.99999994px;stroke-linecap:butt;stroke-linejoin:miter;stroke-opacity:1;fill-opacity:1"
       d="M 367.69531 566.59961 C 298.24809 610.29228 197.78254 653.86529 116.29688 685.98828 C 121.49633 696.84881 132.57562 704.31641 145.46289 704.31641 L 335.37109 704.31641 C 353.27908 704.31641 367.69531 689.90017 367.69531 671.99219 L 367.69531 566.59961 z "
       transform="scale(0.26458333)"
       id="path3095" />
    <path
       style="opacity:1;vector-effect:none;fill:url(#linearGradient3107);fill-opacity:1;stroke:none;stroke-width:0.91700053;stroke-linecap:butt;stroke-linejoin:miter;stroke-miterlimit:4;stroke-dasharray:none;stroke-dashoffset:0;stroke-opacity:1;paint-order:stroke markers fill"
       d="M 367.69531 586.36914 C 276.82354 626.93775 178.80947 653.8389 113.13672 669.18359 L 113.13672 671.99219 C 113.13672 689.90017 127.55491 704.31641 145.46289 704.31641 L 335.37109 704.31641 C 353.27908 704.31641 367.69531 689.90017 367.69531 671.99219 L 367.69531 586.36914 z "
       transform="scale(0.26458333)"
       id="rect3086" />
    <text
       xml:space="preserve"
       style="font-style:normal;font-variant:normal;font-weight:normal;font-stretch:normal;font-size:8.51092243px;line-height:1.25;font-family:'Swis721 BlkCn BT';-inkscape-font-specification:'Swis721 BlkCn BT';text-align:center;letter-spacing:0px;word-spacing:0px;text-anchor:middle;fill:#000000;fill-opacity:1;stroke:none;stroke-width:0.21277307"
       x="63.535343"
       y="168.88203"
       id="text1469"><tspan
         sodipodi:role="line"
         id="tspan1467"
         x="63.535343"
         y="168.88203"
         style="font-style:normal;font-variant:normal;font-weight:normal;font-stretch:normal;font-family:'Swis721 BlkCn BT';-inkscape-font-specification:'Swis721 BlkCn BT';text-align:center;text-anchor:middle;stroke-width:0.21277307">$nome</tspan></text>
    <text
       id="text1473"
       y="175.19518"
       x="63.528435"
       style="font-style:normal;font-variant:normal;font-weight:normal;font-stretch:normal;font-size:4.87161589px;line-height:1.25;font-family:'URW Gothic L';-inkscape-font-specification:'URW Gothic L';text-align:center;letter-spacing:0px;word-spacing:0px;text-anchor:middle;fill:#000000;fill-opacity:1;stroke:none;stroke-width:0.1217904"
       xml:space="preserve"><tspan
         style="font-style:normal;font-variant:normal;font-weight:normal;font-stretch:normal;font-family:'URW Gothic L';-inkscape-font-specification:'URW Gothic L';text-align:center;text-anchor:middle;stroke-width:0.1217904"
         y="175.19518"
         x="63.528435"
         id="tspan1471"
         sodipodi:role="line">$profissao</tspan></text>
    <g
       id="g4045"
       transform="matrix(0.646229,0,0,0.646229,-92.423764,413.7634)"
       inkscape:export-filename="/home/jbneto/Imagens/tidofuturo.png"
       inkscape:export-xdpi="300"
       inkscape:export-ydpi="300">
      <g
         id="g5731">
        <text
           id="text5370"
           y="-483.11255"
           x="233.86012"
           style="font-style:normal;font-weight:normal;font-size:7.00044918px;line-height:1.25;font-family:sans-serif;letter-spacing:0px;word-spacing:0px;fill:#333333;fill-opacity:1;stroke:#333333;stroke-width:0.17501122;stroke-opacity:1"
           xml:space="preserve"><tspan
             style="fill:#333333;fill-opacity:1;stroke:#333333;stroke-width:0.17501122;stroke-opacity:1"
             y="-483.11255"
             x="233.86012"
             id="tspan5368"
             sodipodi:role="line">DO FUTURO</tspan></text>
        <path
           sodipodi:nodetypes="cccccccccccccccccccccsscccccscccccccccccsccccccscccccccsccccscsccccccccccccccccsccccccccccccccccsc"
           inkscape:connector-curvature="0"
           id="path5372"
           d="m 212.74726,-492.9164 c -0.0588,-0.003 -0.11886,-0.003 -0.17932,0.003 -0.44031,0.0338 -0.77206,0.20798 -1.05368,0.55345 -0.19463,0.23876 -0.28996,0.50295 -0.30903,0.85524 -0.0187,0.34539 0.0437,0.59608 0.21084,0.84439 l 0.11318,0.16797 -0.24598,0.41394 c -0.1352,0.22773 -0.4018,0.68006 -0.59273,1.0051 -0.74479,1.26788 -0.89516,1.51299 -0.91933,1.4981 -0.0138,-0.009 -0.13625,-0.0277 -0.27182,-0.0429 -0.96901,-0.10869 -1.88986,0.50644 -2.16627,1.44692 -0.0631,0.21469 -0.0711,0.69401 -0.016,0.95449 0.091,0.43013 0.38701,0.88765 0.75396,1.1653 0.36714,0.27779 0.71648,0.39084 1.21543,0.39585 l 0.30127,0.003 0.23151,0.52348 c 0.20695,0.46717 0.3271,0.74327 0.72089,1.65933 l 0.1111,0.25787 -0.0847,0.0796 c -0.14743,0.13838 -0.34087,0.45853 -0.41962,0.69504 -0.0953,0.28633 -0.10229,0.71032 -0.0165,1.00563 0.21313,0.73392 0.88496,1.23248 1.66037,1.23248 0.7309,0 1.3771,-0.47085 1.6216,-1.18184 0.10007,-0.29099 0.0856,-0.82434 -0.0305,-1.12345 -0.1719,-0.44291 -0.43259,-0.7302 -0.85111,-0.93792 -0.27262,-0.13528 -0.71016,-0.22971 -0.87437,-0.18862 -0.063,0.0159 -0.0909,-0.0257 -0.23771,-0.36018 -0.0914,-0.20815 -0.20731,-0.46998 -0.25734,-0.58137 -0.31182,-0.69453 -0.64028,-1.45777 -0.64028,-1.48775 0,-0.0193 0.0629,-0.0951 0.13953,-0.16849 0.1834,-0.17563 0.38376,-0.48495 0.47336,-0.7307 l 0.0723,-0.19791 2.07946,0.009 2.07119,0.009 c -0.0111,-0.17341 -0.0171,-0.34711 -0.0181,-0.52089 0.004,-0.16402 0.0117,-0.32787 0.0243,-0.49144 h -2.06861 -2.07171 l -0.14262,-0.30593 c -0.13896,-0.29737 -0.20911,-0.40749 -0.33073,-0.51729 -0.0325,-0.0292 -0.0594,-0.0655 -0.0594,-0.0806 0,-0.0262 0.11206,-0.21929 0.71003,-1.2237 0.14376,-0.24143 0.29961,-0.50757 0.34623,-0.59116 0.0466,-0.0836 0.21173,-0.36158 0.36691,-0.61806 l 0.28215,-0.46662 0.30386,-0.0109 c 0.46355,-0.0175 0.7805,-0.16407 1.08365,-0.50125 0.19804,-0.22027 0.27722,-0.37812 0.34003,-0.67747 0.18649,-0.88881 -0.49289,-1.73045 -1.37562,-1.77096 z m -0.12041,1.01492 c 0.12612,-0.009 0.25714,0.0277 0.35812,0.11266 0.26517,0.22312 0.18462,0.66296 -0.14418,0.78755 -0.19927,0.0755 -0.42916,0.0135 -0.5581,-0.15039 -0.11084,-0.14091 -0.10348,-0.44799 0.0139,-0.58756 0.0827,-0.0983 0.20409,-0.15308 0.33021,-0.16226 z m -3.3631,5.30357 c 0.18037,-0.003 0.36058,0.0212 0.46405,0.0723 0.35687,0.17645 0.54361,0.51816 0.51625,0.94464 -0.0261,0.40687 -0.26755,0.73506 -0.63097,0.85783 -0.0631,0.0214 -0.22313,0.0388 -0.35501,0.0388 -0.57433,-5e-5 -0.96584,-0.38362 -0.96584,-0.9467 0,-0.42291 0.1608,-0.70234 0.50695,-0.88213 0.1037,-0.0538 0.2842,-0.0824 0.46457,-0.0847 z m 4.80332,2.03242 c -0.25074,0 -0.31177,0.0127 -0.4842,0.0997 -0.65394,0.32986 -0.8347,1.15554 -0.3669,1.67637 0.16425,0.18288 0.31938,0.28792 0.52451,0.35502 0.18654,0.061 0.51078,0.0389 0.70745,-0.048 0.22054,-0.0976 0.47938,-0.35165 0.58756,-0.57671 0.19532,-0.40637 0.0971,-0.90337 -0.23978,-1.21388 -0.25338,-0.23355 -0.39968,-0.29242 -0.72864,-0.2925 z m -2.33215,3.95428 c 0.22964,-0.0124 0.4672,0.0862 0.61856,0.30178 0.22201,0.31623 0.12925,0.77309 -0.20153,0.99219 -0.13246,0.0877 -0.18787,0.10319 -0.36174,0.10234 -0.21962,-0.003 -0.34644,-0.051 -0.50384,-0.1969 -0.22467,-0.2082 -0.27292,-0.53867 -0.12144,-0.83302 0.11846,-0.23021 0.34035,-0.35396 0.56999,-0.36639 z m 5.82083,0.82063 c 0.003,0.005 0.0233,0.0288 0.0233,0.0305 0,0.013 -0.74105,0.76449 -1.64693,1.67018 l -1.64692,1.64693 -0.26924,-0.0708 c -0.89957,-0.23572 -1.76046,0.39018 -1.8619,1.35342 -0.0389,0.36933 0.13989,0.8233 0.44493,1.12913 0.6177,0.61927 1.53648,0.5855 2.15439,-0.0791 0.36755,-0.39529 0.47826,-0.93803 0.29198,-1.43245 l -0.0615,-0.16177 1.65519,-1.66809 1.65468,-1.66762 c -0.26053,-0.23534 -0.50694,-0.4859 -0.73794,-0.75033 z m -3.89692,4.24262 c 0.0856,0.003 0.17211,0.0301 0.25115,0.0842 0.14421,0.0988 0.19079,0.19228 0.19017,0.38034 -5.3e-4,0.18174 -0.056,0.28911 -0.19896,0.3855 -0.13445,0.0906 -0.37453,0.102 -0.51779,0.0243 -0.10558,-0.0573 -0.2279,-0.274 -0.2279,-0.40306 0,-0.28372 0.24657,-0.48149 0.50333,-0.47131 z"
           style="fill:#474b57;fill-opacity:1;stroke-width:0.03376998" />
        <path
           sodipodi:nodetypes="ccccc"
           inkscape:connector-curvature="0"
           style="opacity:1;vector-effect:none;fill:#474b57;fill-opacity:1;stroke:none;stroke-width:0.19898257;stroke-linecap:butt;stroke-linejoin:miter;stroke-miterlimit:4;stroke-dasharray:none;stroke-dashoffset:0;stroke-opacity:1;paint-order:stroke markers fill"
           d="m 216.68147,-488.22726 c -0.28277,0.82623 -0.42833,1.6932 -0.4309,2.56648 0.004,2.83834 1.51095,5.46225 3.96119,6.89492 v -9.4614 z"
           id="path5374" />
        <path
           sodipodi:nodetypes="cccc"
           inkscape:connector-curvature="0"
           style="opacity:1;vector-effect:none;fill:#999999;fill-opacity:1;stroke:none;stroke-width:0.19898257;stroke-linecap:butt;stroke-linejoin:miter;stroke-miterlimit:4;stroke-dasharray:none;stroke-dashoffset:0;stroke-opacity:1;paint-order:stroke markers fill"
           d="m 230.81137,-490.21756 v 9.12523 c 0.934,-1.34043 1.43514,-2.9347 1.43601,-4.56845 -0.004,-1.62974 -0.50428,-3.21962 -1.43601,-4.55678 z"
           id="path5376" />
        <path
           sodipodi:nodetypes="ccccccccccc"
           inkscape:connector-curvature="0"
           style="opacity:1;vector-effect:none;fill:url(#radialGradient5316-3);fill-opacity:1;stroke:none;stroke-width:0.19898257;stroke-linecap:butt;stroke-linejoin:miter;stroke-miterlimit:4;stroke-dasharray:none;stroke-dashoffset:0;stroke-opacity:1;paint-order:stroke markers fill"
           d="m 224.24921,-493.65943 c -2.44642,0.003 -4.7568,1.126 -6.27114,3.0474 h 8.84004 v 2.38477 h -3.98742 v 10.43105 c 0.46791,0.0868 0.94264,0.13167 1.41852,0.13408 1.3832,-0.004 2.74183,-0.36578 3.94323,-1.05127 v -11.89863 h 2.33716 c -1.51635,-1.92394 -3.83072,-3.04693 -6.28039,-3.0474 z"
           id="path5378" />
        <path
           sodipodi:nodetypes="sccccsccccccccsscccscccccccccccccscccccccccccccccccccccccccccccccccccccccccccccccccccccscccccccccccccccccccscccccccccccccccccccccccccccccccc"
           inkscape:connector-curvature="0"
           style="fill:#0065c7;fill-opacity:1;stroke-width:0.03376998"
           d="m 224.20547,-500.10873 c -0.43524,6e-5 -0.87187,0.15719 -1.18597,0.47131 -0.21912,0.2191 -0.41961,0.62174 -0.47801,0.96064 -0.0977,0.56669 0.14027,1.22058 0.56637,1.55806 0.14396,0.11401 0.39961,0.25699 0.5116,0.28628 0.072,0.0188 0.0718,0.0225 0.0718,1.18493 v 1.08884 c 0.18561,-0.0124 0.37156,-0.0193 0.55759,-0.0201 0.15227,0.004 0.30442,0.0116 0.4563,0.0233 l 0.008,-1.09451 0.009,-1.1684 0.10128,-0.0326 c 0.0557,-0.018 0.2053,-0.10162 0.3328,-0.18552 0.87291,-0.57476 0.98262,-1.83108 0.22686,-2.60138 -0.3081,-0.31404 -0.74195,-0.47083 -1.17719,-0.47078 z m -12.56615,0.21757 c -0.1632,0 -0.32375,0.0265 -0.47646,0.078 -0.27664,0.0933 -0.40941,0.17385 -0.63717,0.38756 -0.2208,0.20719 -0.3382,0.37634 -0.44597,0.64286 -0.071,0.17541 -0.0817,0.25693 -0.0817,0.60772 0,0.3411 0.0118,0.43767 0.077,0.60822 0.16971,0.44402 0.54298,0.81796 0.99271,0.99581 0.18821,0.0744 0.26346,0.0845 0.63562,0.0837 0.37054,0 0.44382,-0.0111 0.60203,-0.0817 l 0.18035,-0.0801 2.54661,2.54661 c 1.38212,1.38205 2.49717,2.51267 2.52698,2.56212 0.22692,-0.25712 0.46848,-0.50093 0.72347,-0.7302 l -2.54042,-2.54039 -2.55591,-2.55593 0.0904,-0.20153 c 0.12958,-0.28903 0.1524,-0.7588 0.0527,-1.08419 -0.13749,-0.44878 -0.44274,-0.80933 -0.87488,-1.03351 -0.26378,-0.13682 -0.54347,-0.20609 -0.81545,-0.20516 z m 4.58576,0.0103 c -0.40747,-0.0148 -0.81621,0.22402 -1.02939,0.64182 -0.12859,0.25205 -0.13704,0.64419 -0.0191,0.88369 0.13903,0.28236 0.48241,0.56867 0.76481,0.63767 0.45978,0.11245 1.00883,-0.17166 1.22577,-0.63458 0.12359,-0.26381 0.12898,-0.65958 0.0119,-0.88159 -0.11907,-0.22577 -0.32905,-0.43196 -0.55449,-0.54467 -0.12821,-0.0641 -0.26364,-0.0974 -0.39946,-0.10234 z m 8.00778,0.77671 c 0.0905,0.003 0.18007,0.022 0.262,0.0641 0.46395,0.23791 0.51387,0.82947 0.0982,1.16427 -0.11015,0.0886 -0.16078,0.10467 -0.3545,0.1137 -0.23696,0.0103 -0.34772,-0.0273 -0.50798,-0.17262 -0.19215,-0.1742 -0.26242,-0.50093 -0.16019,-0.74567 0.11055,-0.26435 0.39097,-0.42889 0.66249,-0.42376 z m -12.6106,0.24236 c 0.27162,-0.0172 0.43744,0.0483 0.5855,0.23254 0.13358,0.16624 0.17087,0.26921 0.17001,0.46458 -0.002,0.31618 -0.2227,0.60251 -0.52451,0.6785 -0.18275,0.0459 -0.23775,0.0447 -0.39016,-0.01 -0.29463,-0.10528 -0.50278,-0.38703 -0.50178,-0.67953 5.3e-4,-0.17328 0.14404,-0.43429 0.31264,-0.56949 0.10623,-0.0852 0.1651,-0.10459 0.3483,-0.11679 z m 8.62738,1.75546 c -0.2506,-0.0151 -0.50324,0.0322 -0.72967,0.14417 -0.3109,0.15367 -0.61082,0.46601 -0.7245,0.75395 -0.0957,0.24231 -0.12867,0.68504 -0.0677,0.9126 0.16231,0.60587 0.63767,1.0332 1.25418,1.12758 l 0.2589,0.0398 0.091,0.23254 c 0.0418,0.10666 0.0606,0.17098 0.0661,0.20207 0.31301,-0.14939 0.63447,-0.28036 0.96273,-0.39222 -0.0265,-0.0396 -0.0636,-0.10774 -0.10335,-0.20103 l -0.0982,-0.22945 0.13178,-0.15761 c 0.34441,-0.41262 0.44403,-0.97986 0.25838,-1.47278 -0.13051,-0.3465 -0.28486,-0.53951 -0.58239,-0.72863 -0.21783,-0.13849 -0.46667,-0.21601 -0.71727,-0.23098 z m -0.0574,1.00922 c 0.0916,0.004 0.1795,0.0286 0.24701,0.0744 0.12854,0.0873 0.23117,0.31472 0.19689,0.43565 -0.0549,0.19355 -0.10011,0.26865 -0.19896,0.32863 -0.15156,0.092 -0.28938,0.10997 -0.43717,0.0569 -0.17383,-0.0625 -0.24199,-0.1301 -0.28939,-0.28838 -0.067,-0.22349 0.0254,-0.46553 0.21084,-0.55345 0.0838,-0.0398 0.17917,-0.0574 0.27078,-0.0537 z m 0.17466,18.45056 c 0.0454,0.032 0.0746,0.0574 0.0708,0.0667 -0.4005,0.95469 -0.57666,1.36268 -0.60099,1.39319 -0.0166,0.0209 -0.0868,0.0479 -0.15606,0.0589 -0.31882,0.0528 -0.6529,0.35936 -0.7705,0.70747 -0.0767,0.22712 -0.0541,0.5968 0.0491,0.8082 0.1034,0.21193 0.32058,0.43095 0.52865,0.53332 0.13614,0.0669 0.21971,0.0827 0.43822,0.0827 0.23191,0 0.29764,-0.014 0.4656,-0.0992 0.23824,-0.12073 0.44024,-0.33284 0.55449,-0.5824 0.0744,-0.16256 0.084,-0.22066 0.0708,-0.44855 -0.0125,-0.21571 -0.0345,-0.29606 -0.12402,-0.45476 -0.0756,-0.13391 -0.10169,-0.21492 -0.0858,-0.26612 0.0343,-0.11041 0.55513,-1.33866 0.58342,-1.37615 -0.34967,-0.1197 -0.69157,-0.26104 -1.02371,-0.42323 z m 3.32435,0.8754 v 2.19729 2.23243 l -0.20567,0.0848 c -0.12607,0.0518 -0.28574,0.15765 -0.41341,0.27439 -0.75742,0.69266 -0.77973,1.80134 -0.0512,2.52232 0.16374,0.16204 0.60527,0.39592 0.83922,0.44443 l 0.001,0.003 c 0.19585,0.0407 0.64856,0.0156 0.84853,-0.0465 0.75417,-0.23455 1.25228,-0.96628 1.20251,-1.7663 l -0.017,-0.27699 0.20722,-0.12454 c 0.59188,-0.35552 2.08185,-1.2299 2.096,-1.2299 0.009,0 0.10203,0.0599 0.2067,0.13333 0.66345,0.46474 1.58472,0.36896 2.17248,-0.22635 0.38134,-0.38624 0.53981,-0.83815 0.47956,-1.3684 -0.0536,-0.47138 -0.21008,-0.77946 -0.55759,-1.09709 -0.35268,-0.32229 -0.77056,-0.46998 -1.23507,-0.43717 -0.67602,0.0478 -1.29522,0.50463 -1.53014,1.12913 -0.0599,0.15939 -0.0731,0.26747 -0.0734,0.58859 l -5.3e-4,0.39378 -0.10129,0.0656 c -0.0557,0.0363 -0.23074,0.14256 -0.3886,0.23564 -0.15788,0.0931 -0.56796,0.33573 -0.91158,0.53951 -0.3436,0.20378 -0.68701,0.40489 -0.76325,0.44701 l -0.13901,0.0765 -0.15813,-0.12092 c -0.087,-0.0664 -0.23347,-0.14766 -0.32557,-0.18034 l -0.16743,-0.0595 v -2.23292 -2.18747 c -0.1521,0.01 -0.30443,0.0148 -0.45682,0.0164 -0.18611,-0.004 -0.37207,-0.0132 -0.55759,-0.0284 z m 5.59087,2.32905 c 0.23406,-0.0249 0.4796,0.0659 0.64337,0.28268 0.24146,0.3197 0.15407,0.78471 -0.19068,1.01286 -0.30721,0.2033 -0.75727,0.10977 -0.96428,-0.20051 -0.1237,-0.18545 -0.15156,-0.49347 -0.062,-0.68212 0.11715,-0.24686 0.33955,-0.38788 0.57361,-0.41291 z m -5.13508,3.03342 c 0.10021,-0.003 0.20866,0.0183 0.32814,0.063 0.57984,0.2177 0.57053,1.05427 -0.0145,1.29866 -0.29396,0.12279 -0.64241,0.0148 -0.82321,-0.2558 -0.19924,-0.2982 -0.17534,-0.62862 0.0646,-0.88471 0.13385,-0.14288 0.27791,-0.2159 0.44493,-0.22116 z"
           id="path5380" />
        <path
           sodipodi:nodetypes="ccccccsccccccccccccccccccccsccccccccccccccccsccccccsccscccccscsccccsccccccccccccscccccsccccccccsccccc"
           inkscape:connector-curvature="0"
           id="path5382"
           d="m 228.97727,-498.96771 c -0.77268,0 -1.34802,0.46395 -1.47019,1.18597 -0.11443,0.67622 0.19182,1.2877 0.79478,1.58647 0.25596,0.12686 0.3133,0.14208 0.59738,0.15658 0.23355,0.0119 0.36398,0 0.50798,-0.0408 0.25281,-0.074 0.57228,-0.28948 0.70693,-0.47696 0.059,-0.0822 0.11739,-0.14936 0.12971,-0.14936 0.0123,0 0.48459,0.10559 1.04955,0.23463 0.56496,0.12904 1.10296,0.25175 1.19579,0.27284 0.0929,0.0212 0.19474,0.0453 0.22635,0.0543 0.0391,0.0108 0.0636,0.0661 0.078,0.17465 0.0259,0.19604 0.13588,0.56882 0.20102,0.68216 0.0481,0.0836 0.0343,0.0982 -1.4242,1.55854 l -1.40715,1.40922 c 0.24905,0.22253 0.48541,0.45887 0.70796,0.70796 l 1.41077,-1.40561 1.47484,-1.47018 0.18759,0.092 c 0.72577,0.35536 1.63227,0.18934 2.22932,-0.40775 1.04316,-1.04312 0.62885,-2.8281 -0.76326,-3.28713 -0.28127,-0.0927 -0.77032,-0.12515 -1.05317,-0.0698 -0.48236,0.0944 -0.94947,0.4136 -1.24695,0.85164 -0.0728,0.10705 -0.15122,0.18892 -0.17415,0.1819 -0.023,-0.007 -0.148,-0.0366 -0.27802,-0.0656 -0.6381,-0.14261 -1.78104,-0.40053 -1.98127,-0.44702 l -0.22531,-0.0522 -0.0413,-0.17415 c -0.15707,-0.66701 -0.72269,-1.10225 -1.43299,-1.10225 z m -0.0553,0.99631 c 0.13865,-0.0212 0.25982,0.0278 0.38395,0.15142 0.112,0.11147 0.12646,0.1456 0.12609,0.29094 -5.3e-4,0.20381 -0.0523,0.30853 -0.19947,0.40772 -0.23648,0.15939 -0.57428,0.0733 -0.69298,-0.17671 -0.11808,-0.24884 -0.0173,-0.51631 0.2372,-0.62892 0.0509,-0.0225 0.099,-0.0374 0.14521,-0.0444 z m 5.86321,0.80979 c 0.26362,0 0.32664,0.0127 0.47697,0.0915 0.19922,0.10433 0.34783,0.27782 0.43408,0.50695 0.0807,0.2146 0.0589,0.62521 -0.0434,0.82423 -0.0936,0.1819 -0.31374,0.3684 -0.50953,0.4315 -0.22126,0.0714 -0.36824,0.0854 -0.55293,0.0532 -0.51852,-0.0905 -0.83282,-0.50226 -0.79427,-1.04026 0.026,-0.36222 0.19598,-0.61365 0.53278,-0.78857 0.12676,-0.0658 0.20281,-0.0789 0.45631,-0.0786 z m 3.0055,3.10626 c -0.31192,0 -0.35579,0.008 -0.57413,0.11163 -0.56343,0.26593 -0.86304,0.82804 -0.76325,1.43248 0.0873,0.52887 0.42908,0.91665 0.96583,1.09553 0.0864,0.0284 0.24201,0.039 0.4315,0.032 0.25218,-0.0109 0.3303,-0.0291 0.52297,-0.12404 0.27575,-0.13573 0.45916,-0.31694 0.61545,-0.60666 0.11452,-0.21241 0.11834,-0.22995 0.11834,-0.59015 0,-0.34496 -0.007,-0.38725 -0.10387,-0.59119 -0.13331,-0.2813 -0.37444,-0.52244 -0.65577,-0.65577 -0.19975,-0.0941 -0.24987,-0.10387 -0.55707,-0.10387 z m -0.01,0.98962 c 0.0257,0 0.0523,0.004 0.0791,0.0114 0.26957,0.0719 0.35596,0.39523 0.15399,0.57568 v 0 c -0.14218,0.1279 -0.28974,0.12724 -0.44339,0 -0.0958,-0.08 -0.11627,-0.1201 -0.11627,-0.22842 0,-0.20942 0.14656,-0.36033 0.32659,-0.35655 z m -6.92205,13.37074 c -0.22416,0.24797 -0.46207,0.48313 -0.71262,0.70435 l 0.12764,0.1292 0.17364,0.17621 -0.0682,0.19794 c -0.11075,0.32215 -0.0811,0.78049 0.0692,1.07174 0.0929,0.17992 0.32642,0.4462 0.50074,0.57103 0.27479,0.19674 0.57492,0.27815 0.96015,0.25995 0.39398,-0.0185 0.62472,-0.12181 0.92346,-0.41291 0.60419,-0.5892 0.60202,-1.49331 -0.005,-2.09857 -0.42123,-0.41997 -0.92259,-0.54279 -1.4888,-0.36433 l -0.18655,0.0589 -0.17208,-0.17208 z m 0.87127,1.17359 c 0.17254,-0.0292 0.39687,0.0744 0.48007,0.22167 0.12245,0.2168 0.0508,0.51623 -0.15348,0.64079 -0.2334,0.14232 -0.56607,0.0545 -0.67696,-0.17931 -0.14474,-0.30501 0.0208,-0.62745 0.35037,-0.68315 z m 4.65656,0.0511 c -0.54747,0 -0.99393,0.27536 -1.233,0.76224 -0.0909,0.18402 -0.0987,0.22971 -0.0987,0.57206 0,0.35197 0.006,0.38367 0.11058,0.59634 0.074,0.15047 0.17442,0.28319 0.30386,0.40153 0.2018,0.18445 0.29896,0.23704 0.5917,0.31936 0.41322,0.11617 0.8844,-0.0103 1.22473,-0.32867 0.56791,-0.5312 0.60591,-1.314 0.0915,-1.88619 -0.26218,-0.29159 -0.59006,-0.43592 -0.99064,-0.43667 z m -0.0212,1.00614 c 0.16617,2e-5 0.27834,0.0775 0.32762,0.22688 0.0498,0.15091 8e-4,0.29091 -0.13642,0.38859 -0.32139,0.22884 -0.67726,-0.21296 -0.41134,-0.51057 0.0735,-0.0824 0.12145,-0.1049 0.22014,-0.1049 z"
           style="fill:#999999;fill-opacity:1;stroke:none;stroke-width:0.03376998" />
      </g>
    </g>
    <rect
       style="opacity:1;vector-effect:none;fill:#ffffff;fill-opacity:1;stroke:none;stroke-width:0.20425206;stroke-linecap:butt;stroke-linejoin:miter;stroke-miterlimit:4;stroke-dasharray:none;stroke-dashoffset:0;stroke-opacity:1;paint-order:stroke markers fill"
       id="rect3035"
       width="22.087034"
       height="3.2186673"
       x="52.566628"
       y="85.333328"
       ry="1.6093336" />
    <image
       sodipodi:absref="/home/jbneto/Documentos/automate-image/01.jpeg"
       xlink:href="01.jpeg"
       width="32.505955"
       height="43.287094"
       preserveAspectRatio="none"
       id="image3239"
       x="47.35717"
       y="114.75758" />
  </g>
</svg>
